Format : AVI
Format/Info : Audio Video Interleave
File size : 920 MiB
Duration : 1h 23mn
Overall bit rate : 1 550 Kbps
Writing application : Lavf52.47.0

Video
ID : 0
Format : xvid
Codec ID : xvid
Duration : 1h 23mn
Bit rate : 1 410 Kbps
Width : 692 pixels
Height : 356 pixels
Display aspect ratio : 1.944
Frame rate : 25.000 fps
Bits/(Pixel*Frame) : 0.229
Stream size : 837 MiB (91%)

Audio
ID : 1
Format : MPEG Audio
Format version : Version 1
Format profile : Layer 3
Mode : Joint stereo
Mode extension : MS Stereo
Codec ID : 55
Codec ID/Hint : MP3
Duration : 1h 23mn
Bit rate mode : Constant
Bit rate : 128 Kbps
Channel(s) : 2 channels
Sampling rate : 44.1 KHz
Stream size : 76.0 MiB (8%)
Alignment : Aligned on interleaves
Interleave, duration : 26 ms (0.65 video frame) 